<svg width="16" height="17" viewBox="0 0 16 17" fill="none" xmlns="http://www.w3.org/2000/svg">
<path d="M14.7931 12.25L9.29934 2.74996C9.16782 2.52148 8.9784 2.3317 8.75017 2.19973C8.52194 2.06777 8.26297 1.99829 7.99934 1.99829C7.73571 1.99829 7.47673 2.06777 7.2485 2.19973C7.02028 2.3317 6.83086 2.52148 6.69934 2.74996L1.20559 12.25C1.07213 12.4773 1.00121 12.7359 1.00002 12.9995C0.998824 13.2631 1.06741 13.5223 1.19881 13.7508C1.33021 13.9793 1.51974 14.169 1.74815 14.3006C1.97657 14.4322 2.23574 14.5009 2.49934 14.5H13.4993C13.7629 14.5009 14.0221 14.4322 14.2505 14.3006C14.4789 14.169 14.6685 13.9793 14.7999 13.7508C14.9313 13.5223 14.9999 13.2631 14.9987 12.9995C14.9975 12.7359 14.9265 12.4773 14.7931 12.25ZM7.49934 6.99996C7.49934 6.86735 7.55202 6.74017 7.64579 6.64641C7.73955 6.55264 7.86673 6.49996 7.99934 6.49996C8.13195 6.49996 8.25912 6.55264 8.35289 6.64641C8.44666 6.74017 8.49934 6.86735 8.49934 6.99996V9.49996C8.49934 9.63257 8.44666 9.75975 8.35289 9.85351C8.25912 9.94728 8.13195 9.99996 7.99934 9.99996C7.86673 9.99996 7.73955 9.94728 7.64579 9.85351C7.55202 9.75975 7.49934 9.63257 7.49934 9.49996V6.99996ZM7.99934 12.5C7.851 12.5 7.706 12.456 7.58266 12.3736C7.45932 12.2912 7.36319 12.174 7.30643 12.037C7.24966 11.8999 7.23481 11.7491 7.26375 11.6036C7.29269 11.4582 7.36412 11.3245 7.46901 11.2196C7.5739 11.1147 7.70753 11.0433 7.85302 11.0144C7.99851 10.9854 8.14931 11.0003 8.28635 11.0571C8.4234 11.1138 8.54053 11.2099 8.62294 11.3333C8.70535 11.4566 8.74934 11.6016 8.74934 11.75C8.74934 11.9489 8.67032 12.1396 8.52967 12.2803C8.38902 12.4209 8.19825 12.5 7.99934 12.5Z" fill="#FF3236"/>
</svg>
