<svg width="28" height="28" viewBox="0 0 28 28" fill="none" xmlns="http://www.w3.org/2000/svg">
<circle cx="14" cy="14" r="14" fill="#FAFAFB"/>
<path d="M20.5625 20.5625H7.4375C7.0894 20.5625 6.75556 20.4242 6.50942 20.1781C6.26328 19.9319 6.125 19.5981 6.125 19.25V10.0625C6.125 9.7144 6.26328 9.38056 6.50942 9.13442C6.75556 8.88828 7.0894 8.75 7.4375 8.75H10.0625L11.375 6.78125H16.625L17.9375 8.75H20.5625C20.9106 8.75 21.2444 8.88828 21.4906 9.13442C21.7367 9.38056 21.875 9.7144 21.875 10.0625V19.25C21.875 19.5981 21.7367 19.9319 21.4906 20.1781C21.2444 20.4242 20.9106 20.5625 20.5625 20.5625Z" stroke="#747C90" stroke-width="1.75" stroke-linecap="round" stroke-linejoin="round"/>
<path d="M14 17.2812C15.631 17.2812 16.9531 15.9591 16.9531 14.3281C16.9531 12.6972 15.631 11.375 14 11.375C12.369 11.375 11.0469 12.6972 11.0469 14.3281C11.0469 15.9591 12.369 17.2812 14 17.2812Z" stroke="#747C90" stroke-width="1.75" stroke-linecap="round" stroke-linejoin="round"/>
</svg>
