<svg width="80" height="80" viewBox="0 0 80 80" fill="none" xmlns="http://www.w3.org/2000/svg">
<path d="M70.5938 32.125C69.4062 30.9062 68.1875 29.625 67.7188 28.5312C67.25 27.4375 67.2812 25.8125 67.25 24.1562C67.2188 21.125 67.1562 17.6562 64.75 15.25C62.3438 12.8438 58.875 12.7812 55.8438 12.75C54.1875 12.7187 52.5 12.6875 51.4688 12.2812C50.4375 11.875 49.0938 10.5938 47.875 9.40625C45.7188 7.34375 43.25 5 40 5C36.75 5 34.2813 7.34375 32.125 9.40625C30.9062 10.5938 29.625 11.8125 28.5312 12.2812C27.4375 12.75 25.8125 12.7187 24.1562 12.75C21.125 12.7812 17.6562 12.8438 15.25 15.25C12.8438 17.6562 12.7812 21.125 12.75 24.1562C12.7187 25.8125 12.6875 27.5 12.2812 28.5312C11.875 29.5625 10.5938 30.9062 9.40625 32.125C7.34375 34.2813 5 36.75 5 40C5 43.25 7.34375 45.7188 9.40625 47.875C10.5938 49.0938 11.8125 50.375 12.2812 51.4688C12.75 52.5625 12.7187 54.1875 12.75 55.8438C12.7812 58.875 12.8438 62.3438 15.25 64.75C17.6562 67.1562 21.125 67.2188 24.1562 67.25C25.8125 67.2812 27.5 67.3125 28.5312 67.7188C29.5625 68.125 30.9062 69.4062 32.125 70.5938C34.2813 72.6562 36.75 75 40 75C43.25 75 45.7188 72.6562 47.875 70.5938C49.0938 69.4062 50.375 68.1875 51.4688 67.7188C52.5625 67.25 54.1875 67.2812 55.8438 67.25C58.875 67.2188 62.3438 67.1562 64.75 64.75C67.1562 62.3438 67.2188 58.875 67.25 55.8438C67.2812 54.1875 67.3125 52.5 67.7188 51.4688C68.125 50.4375 69.4062 49.0938 70.5938 47.875C72.6562 45.7188 75 43.25 75 40C75 36.75 72.6562 34.2813 70.5938 32.125ZM37.5 25C37.5 24.337 37.7634 23.7011 38.2322 23.2322C38.7011 22.7634 39.337 22.5 40 22.5C40.663 22.5 41.2989 22.7634 41.7678 23.2322C42.2366 23.7011 42.5 24.337 42.5 25V42.5C42.5 43.163 42.2366 43.7989 41.7678 44.2678C41.2989 44.7366 40.663 45 40 45C39.337 45 38.7011 44.7366 38.2322 44.2678C37.7634 43.7989 37.5 43.163 37.5 42.5V25ZM40 57.5C39.2583 57.5 38.5333 57.2801 37.9166 56.868C37.2999 56.456 36.8193 55.8703 36.5355 55.1851C36.2516 54.4998 36.1774 53.7458 36.3221 53.0184C36.4667 52.291 36.8239 51.6228 37.3484 51.0984C37.8728 50.5739 38.541 50.2168 39.2684 50.0721C39.9958 49.9274 40.7498 50.0016 41.4351 50.2855C42.1203 50.5693 42.706 51.0499 43.118 51.6666C43.5301 52.2833 43.75 53.0083 43.75 53.75C43.75 54.7446 43.3549 55.6984 42.6516 56.4016C41.9484 57.1049 40.9946 57.5 40 57.5Z" fill="#FFAD0D"/>
</svg>
