<svg width="98" height="98" viewBox="0 0 98 98" fill="none" xmlns="http://www.w3.org/2000/svg">
<path d="M86.4773 39.3531C85.0227 37.8602 83.5297 36.2906 82.9555 34.9508C82.3812 33.6109 82.4195 31.6203 82.3812 29.5914C82.343 25.8781 82.2664 21.6289 79.3187 18.6812C76.3711 15.7336 72.1219 15.657 68.4086 15.6187C66.3797 15.5805 64.3125 15.5422 63.0492 15.0445C61.7859 14.5469 60.1398 12.9773 58.6469 11.5227C56.0055 8.99609 52.9813 6.125 49 6.125C45.0187 6.125 41.9945 8.99609 39.3531 11.5227C37.8602 12.9773 36.2906 14.4703 34.9508 15.0445C33.6109 15.6187 31.6203 15.5805 29.5914 15.6187C25.8781 15.657 21.6289 15.7336 18.6812 18.6812C15.7336 21.6289 15.657 25.8781 15.6187 29.5914C15.5805 31.6203 15.5422 33.6875 15.0445 34.9508C14.5469 36.2141 12.9773 37.8602 11.5227 39.3531C8.99609 41.9945 6.125 45.0187 6.125 49C6.125 52.9813 8.99609 56.0055 11.5227 58.6469C12.9773 60.1398 14.4703 61.7094 15.0445 63.0492C15.6187 64.3891 15.5805 66.3797 15.6187 68.4086C15.657 72.1219 15.7336 76.3711 18.6812 79.3187C21.6289 82.2664 25.8781 82.343 29.5914 82.3812C31.6203 82.4195 33.6875 82.4578 34.9508 82.9555C36.2141 83.4531 37.8602 85.0227 39.3531 86.4773C41.9945 89.0039 45.0187 91.875 49 91.875C52.9813 91.875 56.0055 89.0039 58.6469 86.4773C60.1398 85.0227 61.7094 83.5297 63.0492 82.9555C64.3891 82.3812 66.3797 82.4195 68.4086 82.3812C72.1219 82.343 76.3711 82.2664 79.3187 79.3187C82.2664 76.3711 82.343 72.1219 82.3812 68.4086C82.4195 66.3797 82.4578 64.3125 82.9555 63.0492C83.4531 61.7859 85.0227 60.1398 86.4773 58.6469C89.0039 56.0055 91.875 52.9813 91.875 49C91.875 45.0187 89.0039 41.9945 86.4773 39.3531ZM67.9492 42.0328L45.5164 63.4703C44.9365 64.0159 44.1689 64.3174 43.3727 64.3125C42.5882 64.3155 41.8332 64.0135 41.2672 63.4703L30.0508 52.7516C29.7397 52.4801 29.4867 52.1486 29.307 51.7769C29.1273 51.4052 29.0246 51.001 29.005 50.5886C28.9855 50.1762 29.0496 49.7641 29.1934 49.3771C29.3372 48.9901 29.5578 48.6362 29.8419 48.3366C30.126 48.037 30.4677 47.798 30.8465 47.6338C31.2254 47.4697 31.6335 47.3838 32.0463 47.3814C32.4592 47.379 32.8683 47.4601 33.249 47.6199C33.6297 47.7796 33.9742 48.0147 34.2617 48.3109L43.3727 57.0008L63.7383 37.5922C64.3338 37.0727 65.107 36.8034 65.8964 36.8408C66.6857 36.8781 67.4301 37.2192 67.9738 37.7926C68.5176 38.366 68.8187 39.1274 68.8141 39.9176C68.8095 40.7079 68.4996 41.4657 67.9492 42.0328Z" fill="#44AC21"/>
</svg>
