<svg width="80" height="81" viewBox="0 0 80 81" fill="none" xmlns="http://www.w3.org/2000/svg">
<path d="M16.8438 11.3126C16.3921 10.8401 15.7733 10.5633 15.12 10.5414C14.4667 10.5196 13.8308 10.7545 13.3486 11.1959C12.8665 11.6372 12.5763 12.2498 12.5403 12.9025C12.5044 13.5552 12.7255 14.196 13.1562 14.6876L25.4062 28.1564V28.2189C24.4449 28.0683 23.473 27.9952 22.5 28.0001C17.1957 28.0001 12.1086 30.1073 8.35786 33.858C4.60714 37.6087 2.5 42.6958 2.5 48.0001C2.5 53.3044 4.60714 58.3915 8.35786 62.1423C12.1086 65.893 17.1957 68.0001 22.5 68.0001H50C53.398 68.0055 56.7676 67.3803 59.9375 66.1564L63.1562 69.6876C63.3904 69.9435 63.6752 70.1479 63.9926 70.2878C64.3101 70.4277 64.6531 70.5 65 70.5001C65.6236 70.494 66.2236 70.2607 66.6875 69.8439C66.9332 69.6245 67.1326 69.3582 67.2739 69.0607C67.4151 68.7631 67.4954 68.4402 67.5099 68.1112C67.5245 67.7821 67.4731 67.4534 67.3586 67.1446C67.2442 66.8357 67.0692 66.5528 66.8438 66.3126L16.8438 11.3126Z" fill="#8247E5"/>
<path d="M50.0035 13.0001C44.143 12.9842 38.4335 14.8582 33.7222 18.3438C33.4418 18.5488 33.2078 18.8106 33.0355 19.1121C32.8632 19.4137 32.7565 19.7482 32.7222 20.0939C32.6806 20.4428 32.7149 20.7966 32.8228 21.131C32.9307 21.4654 33.1096 21.7725 33.3472 22.0314L66.816 58.8438C67.0513 59.0983 67.3364 59.3017 67.6535 59.4415C67.9707 59.5812 68.3132 59.6544 68.6597 59.6563C69.0096 59.6563 69.3554 59.5809 69.6735 59.4353C69.9917 59.2897 70.2747 59.0773 70.5035 58.8126C74.0361 54.8549 76.3486 49.96 77.1622 44.7178C77.9759 39.4756 77.2559 34.11 75.0891 29.2678C72.9223 24.4255 69.4012 20.3133 64.9502 17.427C60.4993 14.5406 55.3084 13.0032 50.0035 13.0001Z" fill="#8247E5"/>
</svg>
