<svg width="80" height="80" viewBox="0 0 80 80" fill="none" xmlns="http://www.w3.org/2000/svg">
<path d="M65.906 45.9062C62.6903 49.0949 58.594 51.2483 54.1442 52.0893C49.6944 52.9302 45.0948 52.4202 40.9372 50.625L24.6872 69.4375C24.656 69.5 24.5935 69.5312 24.5622 69.5625C23.6361 70.4922 22.5354 71.23 21.3235 71.7333C20.1115 72.2367 18.8121 72.4958 17.4997 72.4958C16.1874 72.4958 14.888 72.2367 13.676 71.7333C12.4641 71.23 11.3634 70.4922 10.4372 69.5625C9.5075 68.6363 8.76978 67.5357 8.2664 66.3237C7.76303 65.1118 7.50391 63.8123 7.50391 62.5C7.50391 61.1877 7.76303 59.8882 8.2664 58.6763C8.76978 57.4643 9.5075 56.3637 10.4372 55.4375L10.5622 55.3125L29.3747 39.0625C27.5627 34.9346 27.0324 30.3575 27.8527 25.9247C28.6729 21.4918 30.8059 17.4076 33.975 14.2014C37.1442 10.9952 41.2033 8.81493 45.6264 7.94321C50.0494 7.0715 54.6323 7.54854 58.781 9.31249C59.1562 9.47012 59.4867 9.71808 59.743 10.0343C59.9992 10.3505 60.1733 10.7252 60.2497 11.125C60.3286 11.5276 60.3071 11.9435 60.1872 12.3359C60.0673 12.7283 59.8527 13.0852 59.5622 13.375L47.406 25.5312L48.5622 31.4375L54.4685 32.5937L66.6247 20.4375C66.9146 20.1471 67.2714 19.9324 67.6638 19.8125C68.0562 19.6926 68.4721 19.6711 68.8747 19.75C69.2745 19.8264 69.6492 20.0005 69.9654 20.2568C70.2817 20.513 70.5296 20.8435 70.6872 21.2187C72.4514 25.3399 72.9387 29.8954 72.0864 34.2965C71.234 38.6975 69.0811 42.7417 65.906 45.9062Z" fill="#8247E5"/>
</svg>
