<svg width="21" height="20" viewBox="0 0 21 20" fill="none" xmlns="http://www.w3.org/2000/svg">
<path d="M4.25 3.125L16.75 16.875" stroke="#525C76" stroke-width="2" stroke-linecap="round" stroke-linejoin="round"/>
<path d="M12.6012 12.3127C12.0277 12.8381 11.2774 13.1282 10.4997 13.1252C9.86894 13.1252 9.25299 12.9343 8.73279 12.5776C8.2126 12.2209 7.81252 11.7151 7.58513 11.1268C7.35775 10.5385 7.31372 9.89515 7.45882 9.28133C7.60392 8.66752 7.93136 8.11198 8.3981 7.68774" stroke="#525C76" stroke-width="2" stroke-linecap="round" stroke-linejoin="round"/>
<path d="M6.28125 5.35913C3.09375 6.96851 1.75 9.99976 1.75 9.99976C1.75 9.99976 4.25 15.6248 10.5 15.6248C11.9645 15.6367 13.4108 15.2992 14.7188 14.6404" stroke="#525C76" stroke-width="2" stroke-linecap="round" stroke-linejoin="round"/>
<path d="M16.7972 13.211C18.5003 11.6875 19.2503 10 19.2503 10C19.2503 10 16.7503 4.37502 10.5003 4.37502C9.95848 4.37395 9.41751 4.41838 8.88312 4.50783" stroke="#525C76" stroke-width="2" stroke-linecap="round" stroke-linejoin="round"/>
<path d="M11.0859 6.92969C11.7505 7.05561 12.3561 7.39427 12.8113 7.89457C13.2665 8.39487 13.5466 9.02965 13.6094 9.70312" stroke="#525C76" stroke-width="2" stroke-linecap="round" stroke-linejoin="round"/>
</svg>
