<svg width="44" height="42" viewBox="0 0 44 42" fill="none" xmlns="http://www.w3.org/2000/svg">
<path d="M4.31623 0H19.9666C20.7538 0.000986856 21.5235 0.234541 22.1788 0.671052C22.8342 1.10756 23.3462 1.72763 23.6508 2.45361L27.0772 9.47562H39.6842C40.7589 9.47562 41.7898 9.90259 42.55 10.6628C43.3098 11.4227 43.7368 12.4536 43.7368 13.5282V37.9474C43.7348 39.0218 43.3072 40.0513 42.5477 40.8109C41.7882 41.5704 40.7586 41.9981 39.6842 42H4.31606C3.24171 41.998 2.21217 41.5704 1.45259 40.8109C0.693062 40.0513 0.265396 39.0218 0.263462 37.9474V4.05292C0.265434 2.97857 0.693069 1.94902 1.45259 1.18945C2.21212 0.429917 3.24171 0.00225678 4.31606 0.00031995L4.31623 0ZM21.6761 3.35256C21.5363 3.01441 21.2991 2.72527 20.9949 2.52198C20.6906 2.31869 20.3327 2.21047 19.9669 2.21047H4.3165C3.82801 2.21047 3.35929 2.40455 3.01385 2.74993C2.66843 3.09532 2.47439 3.56407 2.47439 4.05258V9.47552H24.6536L21.6761 3.35256Z" fill="url(#paint0_linear_37738_34604)"/>
<defs>
<linearGradient id="paint0_linear_37738_34604" x1="19.4765" y1="-5.36525" x2="39.9907" y2="47.656" gradientUnits="userSpaceOnUse">
<stop stop-color="#8247E5"/>
<stop offset="1" stop-color="#4F09C5"/>
</linearGradient>
</defs>
</svg>
