<svg width="49" height="48" viewBox="0 0 49 48" fill="none" xmlns="http://www.w3.org/2000/svg">
<path d="M24.5 42C35.5457 42 44.5 33.0457 44.5 22C44.5 10.9543 35.5457 2 24.5 2C13.4543 2 4.5 10.9543 4.5 22C4.5 33.0457 13.4543 42 24.5 42Z" fill="#FFF59D"/>
<path d="M37.5 21.9937C37.5 14.2905 30.8948 8.18794 22.9885 9.08831C16.9838 9.78861 12.18 14.5906 11.5795 20.5931C11.0791 25.1951 12.9806 29.2968 16.1831 31.8979C17.5842 33.0984 18.4849 34.7991 18.4849 36.6999V37H30.4945V36.9C30.4945 35.0992 31.2951 33.2984 32.6962 32.0979C35.5985 29.6969 37.5 26.0954 37.5 21.9937Z" fill="#FBC02D"/>
<path d="M31.0589 20.1557L28.0458 18.1504C27.7445 17.9499 27.2423 17.9499 26.941 18.1504L24.4301 19.7546L22.0196 18.1504C21.7183 17.9499 21.2161 17.9499 20.9148 18.1504L17.9017 20.1557C17.7009 20.3562 17.5 20.5567 17.5 20.8575C17.5 21.1583 17.5 21.4591 17.7009 21.6596L21.5174 26.372V37H23.5262V25.971C23.5262 25.7704 23.4257 25.5699 23.3253 25.3694L20.0109 21.2586L21.5174 20.2559L23.9279 21.8602C24.2292 22.0607 24.7314 22.0607 25.0327 21.8602L27.4432 20.2559L28.9497 21.2586L25.6353 25.3694C25.5349 25.5699 25.4344 25.7704 25.4344 25.971V37H27.4432V26.372L31.2597 21.6596C31.4606 21.4591 31.561 21.1583 31.4606 20.8575C31.3602 20.5567 31.2597 20.2559 31.0589 20.1557Z" fill="#FFF59D"/>
<path d="M24.5 47C26.1569 47 27.5 45.6569 27.5 44C27.5 42.3431 26.1569 41 24.5 41C22.8431 41 21.5 42.3431 21.5 44C21.5 45.6569 22.8431 47 24.5 47Z" fill="#5C6BC0"/>
<path d="M26.5 45H22.5C20.3 45 18.5 43.2 18.5 41V36H30.5V41C30.5 43.2 28.7 45 26.5 45Z" fill="#9FA8DA"/>
<path d="M30.5 40.7838L18.9 42.2973C19.2 42.9595 19.8 43.6216 20.5 44L29.9 42.7703C30.3 42.2027 30.5 41.5405 30.5 40.7838ZM18.5 38.6081V40.5L30.5 38.8919V37L18.5 38.6081Z" fill="#5C6BC0"/>
</svg>
