<svg width="17" height="18" viewBox="0 0 17 18" fill="none" xmlns="http://www.w3.org/2000/svg">
<path d="M8.5 0.875C6.89303 0.875 5.32214 1.35152 3.986 2.24431C2.64985 3.1371 1.60844 4.40605 0.993482 5.8907C0.37852 7.37535 0.217618 9.00901 0.531123 10.5851C0.844628 12.1612 1.61846 13.6089 2.75476 14.7452C3.89106 15.8815 5.3388 16.6554 6.9149 16.9689C8.49099 17.2824 10.1247 17.1215 11.6093 16.5065C13.094 15.8916 14.3629 14.8502 15.2557 13.514C16.1485 12.1779 16.625 10.607 16.625 9C16.6209 6.84638 15.7635 4.78216 14.2407 3.25932C12.7178 1.73648 10.6536 0.87913 8.5 0.875ZM11.4453 11.0547C11.5627 11.1732 11.6285 11.3332 11.6285 11.5C11.6285 11.6668 11.5627 11.8268 11.4453 11.9453C11.3259 12.0608 11.1662 12.1254 11 12.1254C10.8338 12.1254 10.6742 12.0608 10.5547 11.9453L8.5 9.88281L6.44532 11.9453C6.32585 12.0608 6.16618 12.1254 6 12.1254C5.83383 12.1254 5.67415 12.0608 5.55469 11.9453C5.43733 11.8268 5.37149 11.6668 5.37149 11.5C5.37149 11.3332 5.43733 11.1732 5.55469 11.0547L7.61719 9L5.55469 6.94531C5.45503 6.82388 5.40409 6.66971 5.4118 6.51281C5.41951 6.3559 5.4853 6.20747 5.59639 6.09638C5.70747 5.9853 5.8559 5.9195 6.01281 5.9118C6.16972 5.90409 6.32388 5.95502 6.44532 6.05469L8.5 8.11719L10.5547 6.05469C10.6761 5.95502 10.8303 5.90409 10.9872 5.9118C11.1441 5.9195 11.2925 5.9853 11.4036 6.09638C11.5147 6.20747 11.5805 6.3559 11.5882 6.51281C11.5959 6.66971 11.545 6.82388 11.4453 6.94531L9.38282 9L11.4453 11.0547Z" fill="#49536E"/>
</svg>
