<svg width="24" height="24" viewBox="0 0 24 24" fill="none" xmlns="http://www.w3.org/2000/svg">
<path d="M12.8062 15.4594C12.8636 15.3229 12.9601 15.2064 13.0836 15.1247C13.207 15.0429 13.3519 14.9995 13.5 15H16.4375H16.5V14.9375V10.5C16.5 10.3011 16.579 10.1103 16.7197 9.96967C16.8603 9.82902 17.0511 9.75 17.25 9.75C17.4489 9.75 17.6397 9.82902 17.7803 9.96967C17.921 10.1103 18 10.3011 18 10.5V14.9375V15H18.0625L12.8062 15.4594ZM12.8062 15.4594L12.8639 15.4836C12.864 15.4833 12.8641 15.4831 12.8642 15.4828C12.8643 15.4826 12.8644 15.4823 12.8645 15.4821L12.8062 15.4594ZM21.4895 16.2409C21.5828 16.1412 21.646 16.0171 21.6719 15.8831C21.6978 15.7489 21.6853 15.6102 21.6358 15.4829L21.4895 16.2409ZM21.4895 16.2409L17.7409 19.9894C17.7408 19.9896 17.7407 19.9897 17.7406 19.9898C17.6089 20.1169 17.433 20.188 17.25 20.188C17.067 20.188 16.8911 20.1169 16.7594 19.9898C16.7593 19.9897 16.7592 19.9896 16.7591 19.9894L21.4895 16.2409ZM13.0105 16.2409L13.0098 16.2402L12.9656 16.2844L13.0112 16.2416C13.011 16.2414 13.0108 16.2411 13.0105 16.2409ZM4.5 11.3125H11.25C11.4323 11.3125 11.6072 11.3849 11.7361 11.5139C11.8651 11.6428 11.9375 11.8177 11.9375 12C11.9375 12.1823 11.8651 12.3572 11.7361 12.4861C11.6072 12.6151 11.4323 12.6875 11.25 12.6875H4.5C4.31766 12.6875 4.1428 12.6151 4.01386 12.4861C3.88493 12.3572 3.8125 12.1823 3.8125 12C3.8125 11.8177 3.88493 11.6428 4.01386 11.5139C4.1428 11.3849 4.31766 11.3125 4.5 11.3125ZM17.25 6.6875H4.5C4.31766 6.6875 4.1428 6.61507 4.01386 6.48614C3.88493 6.3572 3.8125 6.18234 3.8125 6C3.8125 5.81766 3.88493 5.6428 4.01386 5.51386C4.1428 5.38493 4.31766 5.3125 4.5 5.3125H17.25C17.4323 5.3125 17.6072 5.38493 17.7361 5.51386C17.8651 5.6428 17.9375 5.81766 17.9375 6C17.9375 6.18234 17.8651 6.3572 17.7361 6.48614C17.6072 6.61507 17.4323 6.6875 17.25 6.6875ZM4.5 17.3125H9.75C9.93234 17.3125 10.1072 17.3849 10.2361 17.5139C10.3651 17.6428 10.4375 17.8177 10.4375 18C10.4375 18.1823 10.3651 18.3572 10.2361 18.4861C10.1072 18.6151 9.93234 18.6875 9.75 18.6875H4.5C4.31766 18.6875 4.1428 18.6151 4.01386 18.4861C3.88493 18.3572 3.8125 18.1823 3.8125 18C3.8125 17.8177 3.88493 17.6428 4.01386 17.5139C4.1428 17.3849 4.31766 17.3125 4.5 17.3125Z" fill="#8247E5" stroke="#8247E5" stroke-width="0.125"/>
</svg>
