<svg width="12" height="13" viewBox="0 0 12 13" fill="none" xmlns="http://www.w3.org/2000/svg">
<path d="M5.5 4.56238L3.37513 4.56238C3.37509 4.56238 3.37505 4.56238 3.37502 4.56238C3.28806 4.56218 3.20313 4.53608 3.13108 4.48739C3.05905 4.43873 3.00316 4.36971 2.97052 4.28915C2.93874 4.20904 2.93063 4.12149 2.94716 4.0369C2.96365 3.95247 3.00401 3.87454 3.06343 3.81235L5.68773 1.18804C5.68777 1.188 5.6878 1.18797 5.68783 1.18794C5.77092 1.1057 5.8831 1.05957 6 1.05957C6.1169 1.05957 6.22908 1.1057 6.31217 1.18794C6.3122 1.18797 6.31223 1.188 6.31227 1.18804L8.93612 3.81187C8.93627 3.81203 8.93642 3.81218 8.93656 3.81234C8.99599 3.87453 9.03634 3.95246 9.05284 4.0369C9.06937 4.12145 9.06127 4.20897 9.02951 4.28906C8.99688 4.36966 8.94098 4.43871 8.86893 4.48739C8.79687 4.53608 8.71194 4.56218 8.62498 4.56238C8.62495 4.56238 8.62491 4.56238 8.62487 4.56238L6.5 4.56238H6.4375V4.62488V8.49988C6.4375 8.61592 6.39141 8.7272 6.30936 8.80924C6.22731 8.89129 6.11603 8.93738 6 8.93738C5.88397 8.93738 5.77269 8.89129 5.69064 8.80924C5.60859 8.7272 5.5625 8.61592 5.5625 8.49988V4.62488V4.56238H5.5ZM11 12.0624H11.0625V11.9999V8.49988C11.0625 8.38385 11.1086 8.27257 11.1906 8.19052C11.2727 8.10848 11.384 8.06238 11.5 8.06238C11.616 8.06238 11.7273 8.10848 11.8094 8.19052C11.8914 8.27257 11.9375 8.38385 11.9375 8.49988V11.9999C11.9375 12.2485 11.8387 12.487 11.6629 12.6628C11.4871 12.8386 11.2486 12.9374 11 12.9374H1C0.75136 12.9374 0.512903 12.8386 0.337087 12.6628C0.161272 12.487 0.0625 12.2485 0.0625 11.9999V8.49988C0.0625 8.38385 0.108594 8.27257 0.190641 8.19052C0.272688 8.10848 0.383968 8.06238 0.5 8.06238C0.616032 8.06238 0.727312 8.10848 0.809359 8.19052C0.891406 8.27257 0.9375 8.38385 0.9375 8.49988V11.9999V12.0624H1H11Z" fill="white" stroke="white" stroke-width="0.125"/>
</svg>
